/* XPM */
static const char *mainicon_xpm[] = {
"32 32 255 2 0 0",
"   c #000000",
"!  c #312F30",
"#  c #3A3B36",
"$  c #54673A",
"%  c #3F3F41",
"&  c #464749",
"'  c #655749",
"(  c #675A52",
")  c #484755",
"*  c #595756",
"+  c #7E6757",
",  c #897357",
"-  c #A57E57",
".  c #565763",
"/  c #9E7F63",
"0  c #AC8564",
"1  c #746C69",
"2  c #44436A",
"3  c #67656A",
"4  c #9C836D",
"5  c #837A74",
"6  c #8A8076",
"7  c #948676",
"8  c #6E8976",
"9  c #464777",
":  c #676678",
";  c #806C78",
"<  c #957A78",
"=  c #535179",
">  c #AB9279",
"?  c #88717B",
"@  c #AC7A7B",
"A  c #A1BE7B",
"B  c #8F7D7D",
"C  c #5A457E",
"D  c #7D7D7F",
"E  c #807E7F",
"F  c #5A5A80",
"G  c #837181",
"H  c #606082",
"I  c #696482",
"J  c #8B7582",
"K  c #A98182",
"L  c #7F7C83",
"M  c #908683",
"N  c #888284",
"O  c #777285",
"P  c #868685",
"Q  c #B09A85",
"R  c #898886",
"S  c #787087",
"T  c #A99789",
"U  c #A4918A",
"V  c #797A8C",
"W  c #A77E8C",
"X  c #85818C",
"Y  c #6C6A8D",
"Z  c #69678E",
"[  c #8D8B8E",
"\\  c #AB9B8E",
"]  c #7E6A8F",
"^  c #757393",
"_  c #7A7393",
"`  c #7B7B93",
"a  c #8A8493",
"b  c #8B8993",
"c  c #A39493",
"d  c #858395",
"e  c #716B96",
"f  c #878996",
"g  c #886F97",
"h  c #827C97",
"i  c #908F97",
"j  c #979697",
"k  c #626298",
"l  c #7B7798",
"m  c #917898",
"n  c #7C7C9A",
"o  c #A49B9B",
"p  c #BAA49B",
"q  c #8A859C",
"r  c #8D8B9C",
"s  c #928C9C",
"t  c #D1999C",
"u  c #AC9F9C",
"v  c #7E829D",
"w  c #83839D",
"x  c #AAA39D",
"y  c #7C7FA0",
"z  c #827DA1",
"{  c #7E81A1",
"|  c #C0ACA1",
"}  c #8384A2",
"~  c #ABA2A2",
" ! c #8B8BA3",
"!! c #918DA3",
"#! c #9B9AA3",
"$! c #A7A3A3",
"%! c #716CA4",
"&! c #7A74A4",
"'! c #9392A4",
"(! c #9893A4",
")! c #8688A5",
"*! c #D49CA5",
"+! c #CCA4A5",
",! c #8887A6",
"-! c #3D28A7",
".! c #2522A8",
"/! c #170BA9",
"0! c #1D15A9",
"1! c #878AA9",
"2! c #8E91A9",
"3! c #0604AA",
"4! c #8C8BAA",
"5! c #A09DAA",
"6! c #918EAB",
"7! c #9392AB",
"8! c #9996AB",
"9! c #9B99AB",
":! c #D8ACAB",
";! c #696DAC",
"<! c #8484AC",
"=! c #A5A9AC",
">! c #ACACAC",
"?! c #3B37AD",
"@! c #9698AD",
"A! c #B5B0AD",
"B! c #A2A1AE",
"C! c #ABA3AE",
"D! c #9594B0",
"E! c #3A3BB1",
"F! c #4445B1",
"G! c #4C50B1",
"H! c #969AB1",
"I! c #9895B2",
"J! c #1607B3",
"K! c #A497B3",
"L! c #9C9BB3",
"M! c #9FA0B4",
"N! c #E3B1B4",
"O! c #A29DB5",
"P! c #0707B6",
"Q! c #8986B6",
"R! c #5F47B7",
"S! c #9589B7",
"T! c #B6B5B7",
"U! c #5B57B8",
"V! c #9B97B8",
"W! c #4837B9",
"X! c #A29DB9",
"Y! c #9E9EB9",
"Z! c #C4B8B9",
"[! c #7977BA",
"\\! c #A5A5BA",
"]! c #DCC0BC",
"^! c #CCC3BC",
"_! c #1412BD",
"`! c #897ABD",
"a! c #9695BD",
"b! c #AFB1BE",
"c! c #D1B8BE",
"d! c #A99BBF",
"e! c #6452C0",
"f! c #6C67C1",
"g! c #AFB0C2",
"h! c #887BC3",
"i! c #ABABC3",
"j! c #B1ADC3",
"k! c #CCC5C3",
"l! c #1808C4",
"m! c #574BC5",
"n! c #9789C5",
"o! c #5C3BC6",
"p! c #453CC7",
"q! c #9695C7",
"r! c #C3C2C7",
"s! c #1715C8",
"t! c #4C4BC8",
"u! c #8683C8",
"v! c #B8B7C8",
"w! c #D7CBC8",
"x! c #916ECA",
"y! c #7774CA",
"z! c #4D2CCB",
"{! c #7F69CB",
"|! c #C0BECB",
"}! c #D7D1CB",
"~! c #C3C2CC",
" # c #C9C3CC",
"!# c #0807CD",
"## c #6549CD",
"$# c #806FCD",
"%# c #CCCECD",
"&# c #BFC1CE",
"'# c #C6C9CE",
"(# c #3632D1",
")# c #C5BED1",
"*# c #BFC2D1",
"+# c #0503D2",
",# c #8E88D2",
"-# c #AAA7D2",
".# c #BCBBD2",
"/# c #DAD4D2",
"0# c #E1CCD3",
"1# c #D4D2D3",
"2# c #6262D4",
"3# c #C7C5D4",
"4# c #5A36D6",
"5# c #5B51D6",
"6# c #4B47D8",
"7# c #D1CDD8",
"8# c #2B27D9",
"9# c #D3D3D9",
":# c #E2D7DA",
";# c #8F79DB",
"<# c #D9CDDB",
"=# c #DEDADB",
"># c #F6F1DB",
"?# c #DAD2DD",
"@# c #4333DE",
"A# c #726EDF",
"B# c #7571E0",
"C# c #D3CFE0",
"D# c #BAB9E1",
"E# c #231EE3",
"F# c #5C49E3",
"G# c #2827E7",
"H# c #4538E7",
"I# c #F1DDE9",
"J# c #0102EA",
"K# c #1B14EA",
"L# c #EAEAEA",
"M# c #3835ED",
"N# c #6A67EE",
"O# c #FAF0EF",
"P# c #F1F1F1",
"Q# c #EDEEF2",
"R# c #FCF3F2",
"S# c #F6FCF2",
"T# c #3936F3",
"U# c #997BF5",
"V# c #4A48F7",
"W# c #F7F9F8",
"X# c #8973F9",
"Y# c #1A17FC",
"Z# c #3223FC",
"[# c #9F9BFC",
"\\# c #6B66FD",
"]# c #F5F3FE",
"^# c #625EFF",
"_# c #8081FF",
"`# c #A099FF",
"a# c #FFFEFF",
"b# c #FFFFFF",
"c# c None",
"} { { { w { } ` k!X!Y } z { z { v } 9!T k!!!^ { { { } } { y y M!",
")!} } } } } } v $!7#Z } } } } } }  !8!X Q  #q O ? J O n n s c!a#",
")!)!)!)!} )!} } a /#z l )!)!} } }  !H!v a \\ o +!t W ] I Z!w!o =!",
" !)!)!,!)!)!)!)!h Z!j!Y 4!)!)!,!)!!!7!w } X w!R#0#s &!k i 3 . V ",
"{ 4!,!,!,!,!,!,!)!j 1#e )!)!1! !2!(!(!!!d j P#W#r!X H 9 ) ` 4!1!",
"H 6!4!4!4!4!4!4!4!d }!D!l 4! !7!9!9!'!'!q [ T!>!M . . & . D!4!4!",
"= 4!6!6!2!4!6!6!6! !>!)#Y 6!'!9!\\!L!'!'!r 6 7 D B ) & # V 6!2!6!",
") D!7!6!2!2!2!6!6!2!j }!z !!#!9!9!8!'!(!(!j 4 ~ :#3 ! : D!2!6!6!",
": V!7!7!7!9!8!!!@!@!s T!B!` r '!#!'!'!s i r s k!0#i f O!!!6!D!D!",
" !I!D!7!L!\\!L!!!'!!!r j v!Y '!7!!!!!r f d !!|!O#I#j!\\!O!'! !D!I!",
"l L!H!H!9!5!8!r  !'!7!s /#1!w L!D!!!r a q L!Q#a#]#D#9!8!r  !L!I!",
"_ @!L!L!8!'!r !!H!H!L!8!$!c < G f M!@!r d 9!>#S#9#>!(!r  !8!H!L!",
"K!{ L!L!L!@!@!L!L!L!L!'!N ]!N!m = 7!Y!'!r 2!d!^!=!5!L!L!L!L!L!L!",
"<#^ M!O!Y!M!Y!L!X!Y!Y!b Z!R#/#h 2 V \\!9!i r ##0!;!\\!Y!L!Y!L!M!Y!",
":#!!2!X!X!Y!Y!M!M!Y!O!R T!%##!P 3 L i!B!(!w o!3!<!\\!M!M!M!Y!X!X!",
"Z!)#l \\!\\!\\!\\!X!X!\\!\\!U > E 1 6 M e m!S!#!%!W!3![!\\!\\!X!\\!\\!O!\\!",
"#!:#z L!\\!\\!\\!\\!\\!\\!\\!C!0 ' % * 7 p!K#8#m!R!-!P!K#t!\\!\\!\\!\\!\\!\\!",
"5!k!j!v g!\\!\\!i!\\!\\!\\!i!5!, %  !b!Q!p!T#X#;#p!E#Y#+#Q!b!\\!\\!i!\\!",
"\\!$!:#l \\!i!i!i!i!i!i!i!C!/ & M!i!b!2#\\#`#\\#T#E#!#3!Q!b!i!i!i!i!",
"j!5!}!O!6!v!j!i!i!g!i!g!C!, & \\!j!b!5#V#V#8#s!_!3!.!i!j!i!i!g!g!",
"g!i!A!?#_ (!\\!v!j!j!j!g!x , ) g!j!g!n!z!s!_!J!P!.!a!T!g!j!j!j!j!",
"j!v!B!~ K @ ; '!v!j!g!v!S!C 9 v!g!g!g!`!?!0!6#V#y!|!g!j!j!j!g!j!",
"v!g![ o :!*!g F b!v!g!v!$#l!E!v!g!g!v!v!v!b!A#^#6#v!g!v!g!g!g!v!",
"v!B!j =#R#Z!S 2 5!r!v!|!{!J!G!~!v!v!v!v!v!|!u!\\#M#\\!v!v!v!v!v!v!",
".#B!j 9#L#o P 5 h q!|!-###J!F!|!v!v!v!v!v!v!i!N#V#y!r!v!v!v!v!v!",
".#b!> c j 5 , 6 (#E#6#H#4#/!l!t!|!|!.#.#.#&#|!B#^#6#r!|!.#.#.#|!",
"|!.#| - * & * u e!8#G#\\#U#F#Z#J#u!'#&#|!|!&# #,#\\#M#i!&#|!&#|!|!",
"|!.#3#u ' & |!3#'#h!M#_#[#^#G#+#f!%#&#&#|!&#)#-#N#V#u!'#)#|!)#|!",
"~!*#*#| + . 3#&#3#-#@#V#V#8#s!3!q!3#)#&#)#)#~!&#n!.#z 3#&#*#*#*#",
")#)#3#p ( 3 7#)#)#3#x!z!s!P!3!U!3#3#3#3#)#)#3#3#A!}!z v!3#3#)#)#",
"3#3#3#p ( : 7#3#3#3#3#`!F!E![!7#3#3#3#3#3#3#3#3#v!^!X!H!7#3#3#3#",
"3#3#7#A $ 8 C#3#3#3#3#7#7#7#9#3#3#3#3#3#3#3#3#3#3#T! #z 7#3#3#3#"
};
