/* XPM */
static const char *question_xpm[] = {
"32 32 4 1 0 0",
"  c #000000",
"! c #008000",
"# c #FFFFFF",
"$ c None",
"$$$$$$$$$$$$        $$$$$$$$$$$$",
"$$$$$$$$$   !!!!!!!!   $$$$$$$$$",
"$$$$$$$  !!!!!!!!!!!!!!  $$$$$$$",
"$$$$$$ !!!!!!######!!!!!! $$$$$$",
"$$$$$ !!!!!##########!!!!! $$$$$",
"$$$$ !!!!!############!!!!! $$$$",
"$$$ !!!!!!############!!!!!! $$$",
"$$ !!!!!!##############!!!!!! $$",
"$$ !!!!!!##############!!!!!! $$",
"$ !!!!!!!######!!######!!!!!!! $",
"$ !!!!!!!######!!######!!!!!!! $",
"$ !!!!!!!######!!######!!!!!!! $",
" !!!!!!!!!!!!!!!######!!!!!!!!! ",
" !!!!!!!!!!!!!!!######!!!!!!!!! ",
" !!!!!!!!!!!!!!######!!!!!!!!!! ",
" !!!!!!!!!!!!!!######!!!!!!!!!! ",
" !!!!!!!!!!!!!######!!!!!!!!!!! ",
" !!!!!!!!!!!!!######!!!!!!!!!!! ",
" !!!!!!!!!!!!######!!!!!!!!!!!! ",
" !!!!!!!!!!!!######!!!!!!!!!!!! ",
"$ !!!!!!!!!!!######!!!!!!!!!!! $",
"$ !!!!!!!!!!!!!!!!!!!!!!!!!!!! $",
"$ !!!!!!!!!!!!!##!!!!!!!!!!!!! $",
"$$ !!!!!!!!!!######!!!!!!!!!! $$",
"$$ !!!!!!!!!!######!!!!!!!!!! $$",
"$$$ !!!!!!!!########!!!!!!!! $$$",
"$$$$ !!!!!!!########!!!!!!! $$$$",
"$$$$$ !!!!!!!######!!!!!!! $$$$$",
"$$$$$$ !!!!!!######!!!!!! $$$$$$",
"$$$$$$$  !!!!!!##!!!!!!  $$$$$$$",
"$$$$$$$$$   !!!!!!!!   $$$$$$$$$",
"$$$$$$$$$$$$        $$$$$$$$$$$$"
};
