/* XPM */
static const char *exclamation_xpm[] = {
"32 32 4 1 0 0",
"  c #000000",
"! c #FF0000",
"# c #FFFFFF",
"$ c None",
"$$$$$$$$$$$$$$$$$$$$$$$$$$$$$$$$",
"$$$$$$$$$$$$$$$$$$$$$$$$$$$$$$$$",
"$$$$$$$$$$$$$$$$$$$$$$$$$$$$$$$$",
"$$$$$$$$$$$$$$$$$$$$$$$$$$$$$$$$",
"$$$$$$$$$$$$$$$$$$$$$$$$$$$$$$$$",
"$$$$$$$$$$$$$$$!!$$$$$$$$$$$$$$$",
"$$$$$$$$$$$$$$$!!$$$$$$$$$$$$$$$",
"$$$$$$$$$$$$$$!!!!$$$$$$$$$$$$$$",
"$$$$$$$$$$$$$$!!!!$$$$$$$$$$$$$$",
"$$$$$$$$$$$$$!!!!!!$$$$$$$$$$$$$",
"$$$$$$$$$$$$$!!!!!!$$$$$$$$$$$$$",
"$$$$$$$$$$$$!!!!!!!!$$$$$$$$$$$$",
"$$$$$$$$$$$$!!!##!!!$$$$$$$$$$$$",
"$$$$$$$$$$$!!!####!!!$$$$$$$$$$$",
"$$$$$$$$$$$!!!####!!!$$$$$$$$$$$",
"$$$$$$$$$$!!!!####!!!!$$$$$$$$$$",
"$$$$$$$$$$!!!!####!!!!$$$$$$$$$$",
"$$$$$$$$$!!!!!####!!!!!$$$$$$$$$",
"$$$$$$$$$!!!!!####!!!!!$$$$$$$$$",
"$$$$$$$$!!!!!!!##!!!!!!!$$$$$$$$",
"$$$$$$$$!!!!!!!##!!!!!!!$$$$$$$$",
"$$$$$$$!!!!!!!!!!!!!!!!!!$$$$$$$",
"$$$$$$$!!!!!!!!!!!!!!!!!!$$$$$$$",
"$$$$$$!!!!!!!!!##!!!!!!!!!$$$$$$",
"$$$$$$!!!!!!!!!##!!!!!!!!!$$$$$$",
"$$$$$!!!!!!!!!!!!!!!!!!!!!!$$$$$",
"$$$$$!!!!!!!!!!!!!!!!!!!!!!$$$$$",
"$$$$$$$$$$$$$$$$$$$$$$$$$$$$$$$$",
"$$$$$$$$$$$$$$$$$$$$$$$$$$$$$$$$",
"$$$$$$$$$$$$$$$$$$$$$$$$$$$$$$$$",
"$$$$$$$$$$$$$$$$$$$$$$$$$$$$$$$$",
"$$$$$$$$$$$$$$$$$$$$$$$$$$$$$$$$"
};
